<svg xmlns="http://www.w3.org/2000/svg" fill="none" viewBox="0 0 100 100" height="100" width="100">
<g clip-path="url(#clip0_853_1358)">
<path fill="#018D43" d="M38.2937 51.5527C38.8074 51.5527 39.2838 51.2836 39.5486 50.8434L42.1914 46.4537L45.6934 52.0186C45.9672 52.4539 46.4457 52.7123 46.9639 52.7029C47.4781 52.6922 47.949 52.4125 48.2045 51.966L53.8422 42.1152L61.4141 55.9141C61.6668 56.3746 62.1469 56.6647 62.6723 56.674C62.6809 56.674 62.6896 56.6742 62.6982 56.6742C63.2137 56.6742 63.6922 56.4029 63.9566 55.959L68.674 48.0398H80.0494C80.8584 48.0398 81.5143 47.384 81.5143 46.575C81.5143 45.766 80.8584 45.1102 80.0494 45.1102H67.8416C67.3254 45.1102 66.8473 45.3818 66.5832 45.8254L62.7504 52.2594L55.1533 38.4145C54.8982 37.9498 54.4123 37.6592 53.8822 37.6543C53.8777 37.6543 53.8734 37.6543 53.8689 37.6543C53.3439 37.6543 52.8588 37.9354 52.5977 38.3914L46.8734 48.3934L43.4035 42.8795C43.1352 42.4531 42.667 42.1949 42.1637 42.1949C42.159 42.1949 42.1541 42.1949 42.1492 42.1949C41.6406 42.1998 41.1711 42.4684 40.9088 42.9041L37.4658 48.623H29.1406C28.3316 48.623 27.6758 49.2789 27.6758 50.0879C27.6758 50.8969 28.3316 51.5527 29.1406 51.5527H38.2937Z"></path>
<path fill="#018D43" d="M82.6352 10.8965C81.8262 10.8965 81.1703 11.5523 81.1703 12.3613V16.6824H76.8496C76.0406 16.6824 75.3848 17.3383 75.3848 18.1473C75.3848 18.9563 76.0406 19.6121 76.8496 19.6121H81.1703V23.9334C81.1703 24.7424 81.8262 25.3982 82.6352 25.3982C83.4441 25.3982 84.1 24.7424 84.1 23.9334V19.6121H88.4207C89.2297 19.6121 89.8855 18.9563 89.8855 18.1473C89.8855 17.3383 89.2297 16.6824 88.4207 16.6824H84.1V12.3613C84.1 11.5523 83.4441 10.8965 82.6352 10.8965Z"></path>
<path fill="#018D43" d="M87.8047 61.0859C94.9412 53.4564 96.9865 41.9195 93.0637 32.0289C97.2732 28.8563 100 23.815 100 18.1482C100 8.57305 92.2105 0.783203 82.6359 0.783203C78.7029 0.783203 74.8516 2.13301 71.791 4.58398C71.1596 5.08965 71.0576 6.01152 71.5633 6.64297C72.0689 7.27422 72.9908 7.37637 73.6223 6.8707C76.202 4.80469 79.3188 3.71289 82.6357 3.71289C90.5947 3.71289 97.0701 10.1887 97.0701 18.1482C97.0701 26.1111 90.5949 32.5893 82.6357 32.5893C75.225 32.5893 69.1033 26.9764 68.2904 19.7789C68.2889 19.7623 68.2861 19.7455 68.284 19.7287C68.2272 19.2094 68.1957 18.6824 68.1957 18.1482C68.1957 15.8873 68.7037 13.7252 69.7053 11.7217C70.067 10.998 69.7736 10.1182 69.0502 9.75625C68.326 9.39473 67.4467 9.68789 67.0848 10.4113C65.8779 12.8252 65.266 15.4283 65.266 18.148C65.266 18.3941 65.2725 18.6387 65.2826 18.8824C61.5838 20.2045 58.1312 22.3789 55.2379 25.2244L53.6188 26.8162C53.6109 26.8084 53.6051 26.8025 53.5973 26.7947L52.0055 25.2264C46.8551 20.1482 40.1129 17.3104 33.5055 17.4471C28.0074 17.5604 23.1422 19.7146 19.4371 23.6756C18.8844 24.2674 18.9156 25.1951 19.5074 25.7479C20.0992 26.2986 21.025 26.2693 21.5777 25.6775C24.7301 22.3064 28.8746 20.4725 33.566 20.3768C39.3863 20.2576 45.357 22.7869 49.9488 27.3123L51.5426 28.8826C52.3121 29.6404 52.9684 30.0174 53.6227 30.0174C54.2711 30.0174 54.9176 29.6463 55.6734 28.9041L57.2926 27.3123C59.7256 24.9209 62.5953 23.0588 65.6676 21.8645C67.374 29.6629 74.3332 35.5188 82.6355 35.5188C85.4779 35.5188 88.1629 34.832 90.5334 33.6156C93.7793 42.3463 91.9156 52.3902 85.6754 59.0719L64.6465 80.5977L62.9062 80.9375C62.4844 81.0195 62.1113 81.0938 61.7715 81.1621C59.5645 81.6094 59.0371 81.7148 56.4531 81.3164L43.9238 79.0254C42.2168 78.4355 42.3887 77.0762 42.4844 76.668C42.6348 76.0332 43.2246 75.0078 44.4922 75.1992C44.5039 75.2012 44.5156 75.2031 44.5273 75.2051C45.0918 75.2773 45.6973 75.3555 46.3301 75.4356C48.7031 75.7422 51.3906 76.0879 53.7773 76.332C58.6602 76.8262 61.4219 74.2637 61.9961 71.502C62.5801 68.6875 60.9766 64.9453 56.0742 63.3809C56.0156 63.3633 55.9551 63.3477 55.8926 63.3359L47.8242 61.8555C43.4453 61.0527 40.0391 61.6719 34.8828 62.6094C33.5195 62.8574 31.9727 63.1367 30.25 63.4199L26.4258 64.0488L25.248 62.8438L21.5664 59.0742C14.6855 51.6973 13.1602 40.1426 17.8633 30.9688C18.2324 30.25 17.9473 29.3672 17.2285 28.9981C16.5078 28.6289 15.625 28.9121 15.2559 29.6328C9.99805 39.8906 11.7168 52.8242 19.4375 61.0859C19.4453 61.0938 19.4531 61.1016 19.459 61.1094L22.8965 64.6289L16.4945 65.6813V65.5141C16.4945 64.383 15.4967 63.4629 14.2701 63.4629H2.21875C0.995312 63.4629 0 64.383 0 65.5141V91.2885C0 92.4195 0.995312 93.3397 2.21875 93.3397H14.2703C15.4969 93.3397 16.4947 92.4195 16.4947 91.2885V91.1109L29.668 94.6953L41.8281 98C44.6035 98.8613 46.8398 99.2168 48.8809 99.2168C52.1113 99.2168 54.8555 98.3301 58.4805 97.1582C58.8027 97.0547 59.1328 96.9473 59.4727 96.8379L83.4355 89.1543C86.2129 88.2637 88.1895 86.2637 88.7207 83.8047C89.1328 81.8984 88.5586 80.0156 87.1836 78.7676C86.0703 77.7578 83.4531 76.3086 78.4082 77.9043L69.709 79.6055L87.7832 61.1094C87.791 61.1016 87.7969 61.0938 87.8047 61.0859ZM2.92969 90.41V66.3924H13.5648V67.3988C13.5648 67.402 13.5645 67.4049 13.5645 67.408V89.1932C13.5645 89.1949 13.5648 89.1965 13.5648 89.1982V90.41H2.92969ZM79.2188 80.7207C81.9219 79.8535 84.1074 79.9316 85.2168 80.9375C85.8145 81.4805 86.0488 82.3008 85.8574 83.1836C85.5488 84.6074 84.3086 85.7969 82.541 86.3633L58.5762 94.0488C58.2344 94.1582 57.9023 94.2656 57.5781 94.3711C51.8457 96.2227 48.9687 97.1543 42.6719 95.1953C42.6562 95.1895 42.6387 95.1856 42.6211 95.1797L16.4945 88.0744V68.6504L30.7246 66.3125C32.4707 66.0254 34.0312 65.7402 35.4082 65.4902C40.418 64.5801 43.4434 64.0313 47.2949 64.7383L55.2695 66.2012C58.3789 67.2227 59.4512 69.3496 59.127 70.9063C58.7539 72.7051 56.7695 73.6914 54.0742 73.418C51.7266 73.1777 49.0586 72.834 46.7051 72.5313C46.0762 72.4492 45.4727 72.3711 44.9121 72.3008C42.1113 71.8867 40.1367 73.8457 39.6328 76C39.5254 76.459 39.4824 76.9473 39.5137 77.4395C39.6211 79.2207 40.6855 81.0684 43.1152 81.8438C43.1758 81.8633 43.9844 82.0137 43.9844 82.0137L55.9473 84.2012C55.959 84.2031 55.9727 84.2051 55.9863 84.207C58.4551 84.5918 59.5234 84.5586 61.0371 84.291C61.4336 84.2207 63.0508 83.8926 63.4668 83.8125L66.1035 83.2969C66.1035 83.2969 79.1641 80.7383 79.2188 80.7207Z"></path>
</g>
<defs>
<clipPath id="clip0_853_1358">
<rect fill="white" height="100" width="100"></rect>
</clipPath>
</defs>
</svg>
