<svg xmlns="http://www.w3.org/2000/svg" fill="none" viewBox="0 0 100 100" height="100" width="100">
<g clip-path="url(#clip0_853_1391)">
<path fill="#018D43" d="M92.8329 55.4697C91.9782 54.8298 90.8835 54.6994 89.9042 55.1205C87.7331 56.055 84.5534 55.9574 79.2858 55.797C74.0575 55.6371 66.8976 55.4185 56.4806 56.0433C55.673 56.0918 55.0578 56.7857 55.1062 57.5933C55.1544 58.4007 55.8423 59.0171 56.6562 58.9677C66.9405 58.3511 74.0243 58.5673 79.1964 58.7253C84.8694 58.8986 88.2936 59.0033 91.0649 57.8085C91.0731 57.8105 91.0876 57.8226 91.0899 57.8427C90.5339 62.4158 88.8719 71.2109 83.9864 78.7331C83.5458 79.4116 83.7386 80.3189 84.4171 80.7595C84.6636 80.9194 84.9401 80.996 85.2136 80.996C85.6928 80.996 86.1628 80.7609 86.4434 80.3288C91.6503 72.3116 93.4118 63.0208 93.9983 58.1962C94.1272 57.1318 93.6917 56.1127 92.8329 55.4697Z"></path>
<path fill="#018D43" d="M98.6882 19.8752C97.92 19.3008 96.9366 19.1834 96.0573 19.5619C94.382 20.2826 91.8659 20.2062 87.6958 20.0787C83.2788 19.9437 77.2283 19.7588 68.2332 20.3519C66.8652 20.4424 65.5847 20.5949 64.3947 20.8076C68.89 15.7857 73.1972 11.3953 76.9302 7.784C78.1113 6.64162 78.2126 4.88987 77.1716 3.61839C76.1298 2.34554 74.3906 2.09944 73.0365 3.03245C60.8185 11.4518 50.892 21.3557 43.0652 30.8693C41.4076 20.2125 35.5317 12.0281 25.5856 6.53479C17.3237 1.9719 8.28231 0.492415 3.62841 0.0164393C2.52275 -0.0962558 1.4747 0.375423 0.824901 1.27874C0.178027 2.17776 0.0641599 3.31565 0.520409 4.32268C1.57822 6.65568 1.53857 10.0801 1.47314 15.7527C1.42275 20.1262 1.35986 25.5689 1.73134 32.9597C1.77197 33.7679 2.46279 34.3922 3.26786 34.349C4.07587 34.3084 4.69794 33.6207 4.65731 32.8125C4.29032 25.5125 4.35243 20.1197 4.40263 15.7867C4.47275 9.70802 4.51493 6.03889 3.18896 3.11331C3.1788 3.09104 3.16005 3.04944 3.20302 2.98948C3.25107 2.92268 3.30634 2.92835 3.33056 2.93069C13.4192 3.96214 37.2162 8.87306 40.2895 32.1371C40.376 32.7892 40.4471 33.4349 40.5024 34.0642C35.641 40.2777 31.6864 46.2291 28.5864 51.3765C28.2034 52.0124 27.8295 52.6452 27.46 53.2763C25.5313 49.0421 22.9532 40.7779 23.3786 27.3844C23.4042 26.5756 22.7696 25.8992 21.961 25.8738C21.154 25.8467 20.476 26.4828 20.4504 27.2914C19.9522 42.9837 23.3506 52.0183 25.71 56.337C25.6928 56.3855 25.6852 56.407 25.6678 56.4554C19.9458 58.9236 15.36 59.1816 12.0344 57.2179C8.22606 54.9695 5.94462 49.7148 5.2538 41.6021C5.17606 40.6709 5.10399 39.7652 5.03817 38.8789C4.97802 38.072 4.27646 37.4675 3.46845 37.5269C2.66181 37.5873 2.05654 38.2898 2.1165 39.0966C2.1833 39.9914 2.25576 40.906 2.33447 41.8484C3.11064 50.9626 5.87313 56.9823 10.545 59.7407C12.4772 60.8816 14.6874 61.4515 17.162 61.4515C19.1169 61.4515 21.2378 61.0933 23.5151 60.382C16.7755 73.2134 12.9505 84.3751 11.6259 90.8387C11.1856 92.9876 11.6378 95.2471 12.9585 96.9985C14.3934 98.9012 16.6063 99.9998 18.9755 99.9998C22.836 99.9998 26.0551 97.0877 26.4631 93.2256C26.8063 89.9801 27.3665 86.7534 28.1108 83.5559C29.6911 82.0446 32.8703 79.5766 38.0158 77.9485C38.4653 79.1387 39.0045 80.3706 39.6369 81.645C39.7645 81.9018 39.8934 82.1665 40.0254 82.4368C41.3926 85.2397 43.0944 88.7278 46.6242 91.319C49.8318 93.6737 53.9336 94.8364 59.0842 94.8362C60.5246 94.8362 62.0484 94.745 63.656 94.5637C71.1312 93.7206 77.4511 90.6444 82.4408 85.4204C82.9589 84.878 83.0331 84.0227 82.557 83.443C81.9869 82.7491 80.9593 82.727 80.3591 83.3581C75.8509 88.0956 70.1205 90.8862 63.3277 91.6524C61.7754 91.8276 60.3521 91.9094 59.0412 91.9092C47.908 91.9085 45.0234 86.0001 42.6586 81.1522C42.5238 80.8759 42.3918 80.6055 42.2615 80.3427C41.7201 79.2516 41.2541 78.2014 40.8604 77.1911C43.4789 76.6151 46.5018 76.269 49.9709 76.3204C60.092 76.4712 65.1599 74.7647 67.4414 73.5813C68.3033 73.1343 68.4832 71.9776 67.807 71.2806L67.7867 71.2597C67.3398 70.7989 66.6463 70.689 66.074 70.98C64.3129 71.8753 59.7191 73.5333 50.0135 73.3911C46.1748 73.3335 42.8276 73.7349 39.9299 74.3991C38.9774 70.8819 39.0776 67.9538 40.2365 65.655C41.7813 62.5911 45.3088 60.5491 50.7213 59.5857C51.5178 59.4439 52.0486 58.6833 51.9066 57.8868C51.7648 57.0902 51.0041 56.5597 50.2078 56.7015C43.8381 57.8357 39.6031 60.4042 37.6205 64.3362C36.1311 67.2907 35.9643 70.9181 37.1108 75.1671C33.8389 76.2067 31.2725 77.562 29.3444 78.8511C32.6014 67.6517 38.0069 56.8911 44.2783 47.0542C44.3287 47.0191 44.3779 46.982 44.4246 46.9396C46.1787 45.355 49.9375 42.2218 54.9578 39.4658C55.1975 40.0181 55.4592 40.582 55.7453 41.1589C55.8469 41.3636 55.9496 41.5742 56.0545 41.7894C57.1609 44.0578 58.5383 46.881 61.4172 48.9945C64.0318 50.9136 67.366 51.8615 71.5451 51.8613C72.708 51.8613 73.9373 51.7878 75.2337 51.6415C83.629 50.6947 90.1208 46.3449 94.5279 38.7127C98.073 32.573 99.3132 25.8111 99.737 22.3252C99.8523 21.368 99.4601 20.4523 98.6882 19.8752ZM49.4924 39.3361C50.7482 37.5769 52.0228 35.856 53.307 34.1757C53.4443 34.98 53.649 35.8154 53.9182 36.6822C52.3203 37.5441 50.8387 38.4457 49.4924 39.3361ZM53.6016 29.0465C53.567 29.0855 53.5346 29.1263 53.5041 29.1691C41.6393 44.0957 30.11 62.6337 25.3834 82.3723C25.3657 82.4296 25.3514 82.4876 25.3409 82.5464C24.5278 85.9719 23.9184 89.4331 23.5501 92.918C23.2999 95.2852 21.3333 97.0704 18.9758 97.0704C17.5907 97.0704 16.293 96.4559 15.4155 95.3844C14.5405 94.3161 14.1946 92.9276 14.4663 91.5747C15.8714 84.5821 20.3901 71.7087 28.6192 57.137C28.6555 57.0812 28.6893 57.024 28.7176 56.964C29.4795 55.6183 30.2705 54.2595 31.0961 52.8884C39.2658 39.3226 53.4623 20.0797 74.699 5.44553C74.7785 5.39065 74.8148 5.36545 74.905 5.47502C74.9931 5.58264 74.964 5.61076 74.8933 5.67893C70.2047 10.2145 64.6246 15.9629 58.892 22.6465C58.8723 22.6678 58.8539 22.6902 58.8355 22.7125C57.0976 24.74 55.3463 26.8545 53.6016 29.0465ZM74.9054 48.7294C63.3357 50.0365 60.7594 44.7507 58.6881 40.5044C58.5801 40.2832 58.4746 40.0668 58.3703 39.8568C58.0764 39.2642 57.8133 38.688 57.5744 38.1253C63.467 35.3248 70.7049 33.3496 78.338 34.6732C79.1349 34.8117 79.8933 34.2773 80.0316 33.4802C80.1699 32.6832 79.6359 31.925 78.8386 31.7867C71.7291 30.5531 64.2437 31.7488 56.581 35.3398C56.0832 33.5707 55.9191 31.9908 56.092 30.6138C57.6807 28.6252 59.2744 26.7027 60.8578 24.851C62.8084 24.009 65.3515 23.4791 68.4258 23.2758C77.2798 22.6924 83.2486 22.8744 87.6062 23.0074C91.8874 23.1385 94.5806 23.2205 96.771 22.4289C95.7661 30.0662 91.6495 46.8415 74.9054 48.7294Z"></path>
</g>
<defs>
<clipPath id="clip0_853_1391">
<rect fill="white" height="100" width="100"></rect>
</clipPath>
</defs>
</svg>
