<svg xmlns="http://www.w3.org/2000/svg" fill="none" viewBox="0 0 100 100" height="100" width="100">
<g clip-path="url(#clip0_853_1378)">
<path fill="#018D43" d="M91.2573 82.515H90.1678C89.4697 78.3882 85.8717 75.235 81.5497 75.235H66.7716C66.7273 75.235 66.6831 75.2373 66.6388 75.2411L55.1276 61.4274C53.4591 59.4056 51.0001 58.2467 48.3817 58.2467H36.7507C35.9435 58.2467 35.2889 58.9013 35.2889 59.7085C35.2889 60.5157 35.9435 61.1703 36.7507 61.1703H48.3817C50.1243 61.1703 51.7615 61.9424 52.8769 63.2935L64.9474 77.7794C65.8423 78.8292 66.3344 80.1682 66.3344 81.5499C66.3344 84.7588 63.7244 87.3688 60.5162 87.3688C58.7729 87.3688 57.1364 86.5967 56.0256 85.2501L44.6555 71.4837C44.1413 70.8611 43.2197 70.7726 42.5971 71.2876C41.9746 71.8018 41.8861 72.7227 42.4003 73.3452L53.7703 87.1117C55.4389 89.1335 57.8971 90.2924 60.5162 90.2924C63.9395 90.2924 66.9089 88.3133 68.3425 85.4393H88.8258H88.8296H88.8334H91.2565C94.4654 85.4393 97.0755 88.0493 97.0755 91.2575C97.0755 94.4664 94.4654 97.0764 91.2565 97.0764H50.8086C48.9577 97.0764 47.1999 96.183 46.0952 94.6701L36.032 81.2538C34.3894 79.0039 31.7489 77.6612 28.9665 77.6612H25.5752V61.1703H30.8914C31.6985 61.1703 32.3531 60.5157 32.3531 59.7085C32.3531 58.9013 31.6985 58.2467 30.8914 58.2467H25.5752V54.8547C25.5752 54.0475 24.9206 53.3929 24.1134 53.3929H19.104V50.0009C19.104 49.1937 18.4494 48.5391 17.6414 48.5391H1.46179C0.654601 48.5391 0 49.1937 0 50.0009V88.8306C0 89.6378 0.654601 90.2924 1.46179 90.2924H17.6414C18.4494 90.2924 19.104 89.6378 19.104 88.8306V85.4393H24.1134C24.9206 85.4393 25.5752 84.7847 25.5752 83.9768V80.5855H28.9665C30.8212 80.5855 32.5805 81.482 33.6746 82.9834C33.6784 82.9888 33.6822 82.9941 33.6868 82.9994L43.7453 96.4096C45.3872 98.658 48.0277 100 50.8086 100H91.2573C96.0783 100 99.9998 96.0785 99.9998 91.2575C99.9998 86.4372 96.0775 82.515 91.2573 82.515ZM68.5744 78.1586H81.5497C84.2528 78.1586 86.5317 80.0125 87.1817 82.515H69.2046C69.2397 82.1984 69.2587 81.8764 69.2587 81.5499C69.2587 80.3757 69.0215 79.2229 68.5744 78.1586ZM16.1796 87.3688H2.92358V51.4626H16.1796V87.3688ZM19.104 82.515V56.3165H22.6509V59.7047V59.7085V59.7123V82.515H19.104Z"></path>
<path fill="#018D43" d="M11.1688 55.0098C10.3616 55.0098 9.70703 55.6644 9.70703 56.4723V62.9436C9.70703 63.7515 10.3616 64.4061 11.1688 64.4061C11.9768 64.4061 12.6314 63.7515 12.6314 62.9436V56.4723C12.6314 55.6644 11.9768 55.0098 11.1688 55.0098Z"></path>
<path fill="#018D43" d="M45.3008 24.1142V50.0007C45.3008 52.5908 47.4088 54.6988 49.999 54.6988H59.1008L65.144 60.7421C65.4301 61.0274 65.804 61.1701 66.1786 61.1701C66.5524 61.1701 66.9263 61.0274 67.2124 60.7421L73.2556 54.6988H82.3574C84.9476 54.6988 87.0556 52.5908 87.0556 50.0007V24.1142C87.0556 21.5233 84.9484 19.416 82.3574 19.416H49.999C47.4088 19.416 45.3008 21.5233 45.3008 24.1142ZM48.2251 24.1142C48.2251 23.1353 49.0209 22.3396 49.999 22.3396H82.3574C83.3355 22.3396 84.1313 23.1353 84.1313 24.1142V50.0007C84.1313 50.9788 83.3355 51.7745 82.3574 51.7745H72.6498C72.2622 51.7745 71.8899 51.9286 71.616 52.2025L66.1786 57.6407L60.7404 52.2025C60.4657 51.9286 60.0941 51.7745 59.7066 51.7745H49.999C49.0209 51.7745 48.2251 50.9788 48.2251 50.0007V24.1142Z"></path>
<path fill="#018D43" d="M58.089 44.9899H59.7072C60.5152 44.9899 61.169 44.3353 61.169 43.5281V30.5849C61.169 29.6068 61.9648 28.8111 62.9436 28.8111H69.4149C70.3929 28.8111 71.1887 29.6068 71.1887 30.5849V45.302H69.4149C68.6069 45.302 67.9531 45.9566 67.9531 46.7638C67.9531 47.5717 68.6069 48.2263 69.4149 48.2263H72.6505C73.4584 48.2263 74.113 47.5717 74.113 46.7638V44.9899H74.2687C77.7515 44.9899 80.5843 42.1571 80.5843 38.6743C80.5843 35.1923 77.7515 32.3587 74.2687 32.3587H74.113V30.5849C74.113 27.9947 72.005 25.8867 69.4149 25.8867H62.9436C60.3527 25.8867 58.2454 27.9947 58.2454 30.5849V32.3587H58.089C54.607 32.3587 51.7734 35.1923 51.7734 38.6743C51.7734 42.1571 54.607 44.9899 58.089 44.9899ZM74.2687 35.2831C76.1386 35.2831 77.6607 36.8044 77.6607 38.6743C77.6607 40.5443 76.1386 42.0663 74.2687 42.0663H74.1123V35.2831H74.2687ZM58.089 35.2831H58.2454V42.0663H58.089C56.2191 42.0663 54.6978 40.5443 54.6978 38.6743C54.697 36.8044 56.2191 35.2831 58.089 35.2831Z"></path>
<path fill="#018D43" d="M66.1793 9.39558C66.9865 9.39558 67.6411 8.74098 67.6411 7.93379V1.46179C67.6411 0.654601 66.9865 0 66.1793 0C65.3714 0 64.7168 0.654601 64.7168 1.46179V7.93379C64.7168 8.74098 65.3714 9.39558 66.1793 9.39558Z"></path>
<path fill="#018D43" d="M46.84 16.5502C47.1254 16.8355 47.5 16.9782 47.8738 16.9782C48.2477 16.9782 48.6223 16.8355 48.9076 16.5502C49.4783 15.9795 49.4783 15.0533 48.9076 14.4826L44.3315 9.90652C43.7608 9.33585 42.8346 9.33585 42.2639 9.90652C41.6933 10.4772 41.6933 11.4034 42.2639 11.9741L46.84 16.5502Z"></path>
<path fill="#018D43" d="M33.8219 35.2837H40.2932C41.1011 35.2837 41.755 34.6291 41.755 33.8212C41.755 33.014 41.1011 32.3594 40.2932 32.3594H33.8219C33.014 32.3594 32.3594 33.014 32.3594 33.8212C32.3594 34.6291 33.014 35.2837 33.8219 35.2837Z"></path>
<path fill="#018D43" d="M92.0661 35.2837H98.5373C99.3453 35.2837 99.9991 34.6291 99.9991 33.8212C99.9991 33.014 99.3453 32.3594 98.5373 32.3594H92.0661C91.2581 32.3594 90.6035 33.014 90.6035 33.8212C90.6035 34.6291 91.2581 35.2837 92.0661 35.2837Z"></path>
<path fill="#018D43" d="M84.4833 16.9768C84.8571 16.9768 85.2317 16.8341 85.5171 16.5488L90.0932 11.9727C90.6646 11.4013 90.6646 10.4758 90.0932 9.90514C89.5225 9.3337 88.597 9.3337 88.0256 9.90514L83.4495 14.4812C82.8788 15.0519 82.8788 15.9781 83.4495 16.5488C83.7348 16.8341 84.1094 16.9768 84.4833 16.9768Z"></path>
</g>
<defs>
<clipPath id="clip0_853_1378">
<rect fill="white" height="100" width="100"></rect>
</clipPath>
</defs>
</svg>
